Coordinates
version=1
nRows=24
nColumns=24
inDegrees=yes

Units are S.I. units (second, meters, Newtons, ...)
Angles are in degrees.

endheader
time	pelvis_tilt	pelvis_list	pelvis_rotation	pelvis_tx	pelvis_ty	pelvis_tz	hip_flexion_r	hip_adduction_r	hip_rotation_r	knee_angle_r	ankle_angle_r	subtalar_angle_r	mtp_angle_r	hip_flexion_l	hip_adduction_l	hip_rotation_l	knee_angle_l	ankle_angle_l	subtalar_angle_l	mtp_angle_l	lumbar_extension	lumbar_bending	lumbar_rotation
      1.50033333	     -1.08388877	      6.96346548	     -1.39942849	      0.38561821	      0.90364781	      0.31003592	     16.25275932	    -12.39743296	     -8.80047748	    -70.43818208	      5.88999764	      8.32917154	     14.07033210	     10.72279396	     11.46725728	     -3.91581260	    -17.28560866	      9.19259187	     -7.90963827	      1.37048905	     -4.24129693	    -11.47183699	      2.93530537
      1.50450000	     -1.02998785	      6.81634298	     -1.12463241	      0.39071589	      0.90482858	      0.30956384	     16.76229285	    -12.19787957	     -8.96834367	    -69.94315202	      6.48505636	      8.05362492	     13.87632087	      9.97471457	     11.38599233	     -3.58327148	    -16.68185172	      9.15053210	     -7.79731260	      1.42235629	     -4.33008322	    -11.31186383	      2.58076565
      1.50866667	     -0.96732516	      6.66424275	     -0.83985688	      0.39580230	      0.90599502	      0.30907601	     17.24673003	    -11.99922689	     -9.15261295	    -69.39637781	      7.04875724	      7.78583750	     13.67499536	      9.21710089	     11.29322742	     -3.24458867	    -16.07360396	      9.10454003	     -7.68508169	      1.47526469	     -4.42684414	    -11.14187998	      2.22179290
      1.51283333	     -0.89802408	      6.51341395	     -0.54893331	      0.40088084	      0.90713887	      0.30857480	     17.71064631	    -11.80724625	     -9.34593025	    -68.79946656	      7.58324663	      7.52642210	     13.44594720	      8.45012000	     11.19674679	     -2.89297568	    -15.45710032	      9.04747031	     -7.58196591	      1.53271701	     -4.53016598	    -10.97392478	      1.84470198
      1.51700000	     -0.82496238	      6.35100920	     -0.24717223	      0.40594097	      0.90825701	      0.30807041	     18.15357278	    -11.60308782	     -9.54971411	    -68.15183677	      8.09303903	      7.26502915	     13.25950012	      7.68748575	     11.07755186	     -2.55061198	    -14.85186927	      8.99728844	     -7.45563819	      1.57987557	     -4.64381529	    -10.78662628	      1.50753025
      1.52116667	     -0.74433093	      6.19435892	      0.05833759	      0.41099179	      0.90934175	      0.30754732	     18.57641800	    -11.41534182	     -9.76463386	    -67.45917539	      8.56719163	      7.01941782	     13.05116371	      6.91421589	     10.95988747	     -2.19390995	    -14.23662970	      8.93967905	     -7.35024396	      1.63031379	     -4.75947523	    -10.60630911	      1.11999466
      1.52533333	     -0.66105917	      6.03287894	      0.37297003	      0.41602796	      0.91039590	      0.30702602	     18.98070085	    -11.22211757	     -9.98500476	    -66.71711871	      9.01095623	      6.77302535	     12.84644759	      6.14417074	     10.82725473	     -1.83795251	    -13.62739014	      8.87928946	     -7.24428320	      1.67855918	     -4.88311177	    -10.41796030	      0.74823474
      1.52950000	     -0.59838385	      5.90384213	      0.69871104	      0.42103665	      0.91135221	      0.30647036	     19.40592816	    -11.08001809	    -10.21137780	    -65.95922137	      9.47245724	      6.56842498	     12.36380024	      5.38892026	     10.73094107	     -1.42437097	    -12.98884365	      8.73252317	     -7.25053407	      1.78500366	     -4.98247834	    -10.28177474	      0.23256811
      1.53366667	     -0.49592220	      5.71563389	      1.00843385	      0.42605779	      0.91235622	      0.30597178	     19.75808738	    -10.85453116	    -10.43491940	    -65.10902084	      9.80764971	      6.30792173	     12.18785238	      4.61600160	     10.54450995	     -1.11932889	    -12.40792715	      8.74304437	     -7.06184511	      1.82717053	     -5.12051092	    -10.05092688	      0.00456740
      1.53783333	     -0.41425787	      5.58241536	      1.33715933	      0.43103412	      0.91324686	      0.30542719	     20.13532428	    -10.71031957	    -10.66715222	    -64.25991300	     10.19223686	      6.08879848	     11.78060018	      3.85448241	     10.42212177	     -0.72951219	    -11.78621083	      8.61757377	     -7.02306343	      1.91642504	     -5.24742209	     -9.90383737	     -0.50512307
      1.54200000	     -0.34135516	      5.39384097	      1.66799114	      0.43601315	      0.91410395	      0.30491141	     20.49222623	    -10.49482767	    -10.90943034	    -63.32854983	     10.49659747	      5.83408485	     11.66683380	      3.14380129	     10.21653401	     -0.44219347	    -11.24932873	      8.58939486	     -6.82037720	      1.94393026	     -5.34815742	     -9.66428102	     -0.68570337
      1.54616667	     -0.22124781	      5.25267219	      1.96480927	      0.44100457	      0.91495331	      0.30441531	     20.80448297	    -10.33276846	    -11.11622766	    -62.38313997	     10.71222927	      5.57937480	     11.45365032	      2.33886226	     10.06290927	     -0.10534716	    -10.61655503	      8.57126849	     -6.72408402	      1.99166237	     -5.50525173	     -9.49235088	     -1.13077612
      1.55033333	     -0.17471053	      5.10777459	      2.30353174	      0.44594464	      0.91564844	      0.30386092	     21.17829411	    -10.18341211	    -11.35344800	    -61.40514784	     10.98394228	      5.41768580	     10.58883728	      1.62792886	      9.90898548	      0.34403027	    -10.00193522	      8.42817252	     -6.83026843	      2.18137657	     -5.57513496	     -9.31020358	     -1.60248335
      1.55450000	     -0.07518926	      4.96139404	      2.61433788	      0.45089751	      0.91635985	      0.30340156	     21.48253204	    -10.01211855	    -11.56995006	    -60.37726750	     11.17281434	      5.07086514	     10.48554452	      0.90185264	      9.71835271	      0.56161718	     -9.46930594	      8.39371912	     -6.55242088	      2.20745509	     -5.70906607	     -9.14876037	     -1.79501778
      1.55866667	      0.02819719	      4.83137465	      2.90486765	      0.45585098	      0.91700335	      0.30293529	     21.78176160	     -9.86086556	    -11.76257058	    -59.32860503	     11.28515015	      4.77349085	     10.32102758	      0.14557360	      9.54817187	      0.84255331	     -8.88016896	      8.39597374	     -6.40296976	      2.24763963	     -5.84560854	     -8.97677965	     -2.18407561
      1.56283333	      0.10505811	      4.69917178	      3.21154485	      0.46078895	      0.91756212	      0.30246429	     22.08997510	     -9.71099414	    -11.96828093	    -58.23696725	     11.39137470	      4.46655849	     10.16344727	     -0.56374146	      9.36815051	      1.12554443	     -8.32109632	      8.35297940	     -6.26968634	      2.28588864	     -5.94438325	     -8.81133396	     -2.51909478
      1.56700000	      0.16527945	      4.56924798	      3.52221316	      0.46570205	      0.91804249	      0.30201309	     22.40273225	     -9.56173988	    -12.17058167	    -57.10986420	     11.48570333	      4.14707650	     10.03450689	     -1.23501872	      9.18097440	      1.38676292	     -7.79400491	      8.27217563	     -6.11267040	      2.31710699	     -6.03403753	     -8.65531503	     -2.80631550
      1.57116667	      0.23855676	      4.45993875	      3.80526924	      0.47063429	      0.91846321	      0.30158980	     22.69971421	     -9.42978621	    -12.34547613	    -55.96535608	     11.51474751	      3.79647081	      9.88534065	     -1.93705897	      9.01236305	      1.65038882	     -7.23482814	      8.23786068	     -5.98796458	      2.35342433	     -6.12990037	     -8.51809449	     -3.13688568
      1.57533333	      0.30594659	      4.38747876	      4.09542161	      0.47555784	      0.91879572	      0.30113046	     22.99777548	     -9.35423548	    -12.52905085	    -54.82144748	     11.56861128	      3.48114900	      9.35708361	     -2.65756427	      8.88593998	      2.00190771	     -6.62171411	      8.13357417	     -6.03887683	      2.48471933	     -6.21637403	     -8.41671656	     -3.63599949
      1.57950000	      0.35353222	      4.27201110	      4.36294334	      0.48047171	      0.91907352	      0.30077521	     23.29551011	     -9.19616641	    -12.66642645	    -53.59757762	     11.52067631	      3.07305305	      9.22441673	     -3.29759658	      8.69298327	      2.18416961	     -6.12062319	      8.12085341	     -5.81473177	      2.51907861	     -6.28549053	     -8.27667509	     -3.77994436
      1.58366667	      0.41265085	      4.18006717	      4.62148163	      0.48541420	      0.91929278	      0.30042048	     23.57147944	     -9.06934896	    -12.80744237	    -52.36424967	     11.46919558	      2.65457075	      9.08112737	     -3.96721712	      8.52294556	      2.38184657	     -5.58851243	      8.09136421	     -5.63958250	      2.55562060	     -6.36159880	     -8.15923731	     -4.03882979
      1.58783333	      0.45448942	      4.11597889	      4.87804314	      0.49034346	      0.91941160	      0.30004465	     23.86289970	     -8.98298507	    -12.93996247	    -51.13100403	     11.42571399	      2.32888444	      8.23153309	     -4.65358322	      8.38925013	      2.72172242	     -4.98230625	      7.98712409	     -5.72513651	      2.77718128	     -6.42597140	     -8.06666956	     -4.50528281
      1.59200000	      0.49838659	      4.04334801	      5.11967262	      0.49528875	      0.91948081	      0.29974455	     24.13250415	     -8.86625474	    -13.05175482	    -49.84931932	     11.34657317	      1.83369134	      8.11589118	     -5.28326073	      8.22782324	      2.84491804	     -4.49763672	      7.98394767	     -5.46553355	      2.80864580	     -6.47557521	     -7.98120751	     -4.61163593
      1.59616667	      0.55087384	      3.98795414	      5.33583928	      0.50023411	      0.91948521	      0.29947328	     24.39232516	     -8.76084858	    -13.13252010	    -48.56101271	     11.22812545	      1.38266918	      7.94358687	     -5.94573977	      8.08604662	      3.01202062	     -3.96611214	      8.00194135	     -5.30238228	      2.85433601	     -6.54849949	     -7.90778783	     -4.86172006
